{
    "accessors": {
        "accessor_102": {
            "bufferView": "bufferView_164",
            "byteOffset": 36,
            "byteStride": 0,
            "componentType": 5123,
            "count": 6,
            "type": "SCALAR"
        },
        "accessor_104": {
            "bufferView": "bufferView_165",
            "byteOffset": 384,
            "byteStride": 12,
            "componentType": 5126,
            "count": 4,
            "max": [
                40.3272,
                76,
                -12.9055
            ],
            "min": [
                -39.9221,
                0,
                -12.9055
            ],
            "type": "VEC3"
        },
        "accessor_106": {
            "bufferView": "bufferView_165",
            "byteOffset": 432,
            "byteStride": 12,
            "componentType": 5126,
            "count": 4,
            "max": [
                0,
                0,
                -1
            ],
            "min": [
                0,
                0,
                -1
            ],
            "type": "VEC3"
        },
        "accessor_108": {
            "bufferView": "bufferView_165",
            "byteOffset": 480,
            "byteStride": 8,
            "componentType": 5126,
            "count": 4,
            "max": [
                -61.394,
                101.741
            ],
            "min": [
                -67.929,
                92.241
            ],
            "type": "VEC2"
        },
        "accessor_129": {
            "bufferView": "bufferView_164",
            "byteOffset": 48,
            "byteStride": 0,
            "componentType": 5123,
            "count": 6,
            "type": "SCALAR"
        },
        "accessor_131": {
            "bufferView": "bufferView_165",
            "byteOffset": 512,
            "byteStride": 12,
            "componentType": 5126,
            "count": 4,
            "max": [
                -39.9221,
                76,
                13.0327
            ],
            "min": [
                -39.9221,
                0,
                -12.9055
            ],
            "type": "VEC3"
        },
        "accessor_133": {
            "bufferView": "bufferView_165",
            "byteOffset": 560,
            "byteStride": 12,
            "componentType": 5126,
            "count": 4,
            "max": [
                -1,
                -0,
                -0
            ],
            "min": [
                -1,
                -0,
                -0
            ],
            "type": "VEC3"
        },
        "accessor_135": {
            "bufferView": "bufferView_165",
            "byteOffset": 608,
            "byteStride": 8,
            "componentType": 5126,
            "count": 4,
            "max": [
                -38.8984,
                102.013
            ],
            "min": [
                -40.1953,
                92.513
            ],
            "type": "VEC2"
        },
        "accessor_156": {
            "bufferView": "bufferView_164",
            "byteOffset": 60,
            "byteStride": 0,
            "componentType": 5123,
            "count": 6,
            "type": "SCALAR"
        },
        "accessor_158": {
            "bufferView": "bufferView_165",
            "byteOffset": 640,
            "byteStride": 12,
            "componentType": 5126,
            "count": 4,
            "max": [
                40.3272,
                76,
                13.0327
            ],
            "min": [
                -39.9221,
                76,
                -12.9055
            ],
            "type": "VEC3"
        },
        "accessor_160": {
            "bufferView": "bufferView_165",
            "byteOffset": 688,
            "byteStride": 12,
            "componentType": 5126,
            "count": 4,
            "max": [
                0,
                1,
                0
            ],
            "min": [
                0,
                1,
                0
            ],
            "type": "VEC3"
        },
        "accessor_162": {
            "bufferView": "bufferView_165",
            "byteOffset": 736,
            "byteStride": 8,
            "componentType": 5126,
            "count": 4,
            "max": [
                40.1247,
                13.9691
            ],
            "min": [
                0,
                1
            ],
            "type": "VEC2"
        },
        "accessor_21": {
            "bufferView": "bufferView_164",
            "byteOffset": 0,
            "byteStride": 0,
            "componentType": 5123,
            "count": 6,
            "type": "SCALAR"
        },
        "accessor_23": {
            "bufferView": "bufferView_165",
            "byteOffset": 0,
            "byteStride": 12,
            "componentType": 5126,
            "count": 4,
            "max": [
                40.3272,
                0,
                13.0327
            ],
            "min": [
                -39.9221,
                0,
                -12.9055
            ],
            "type": "VEC3"
        },
        "accessor_25": {
            "bufferView": "bufferView_165",
            "byteOffset": 48,
            "byteStride": 12,
            "componentType": 5126,
            "count": 4,
            "max": [
                0,
                -1,
                0
            ],
            "min": [
                0,
                -1,
                0
            ],
            "type": "VEC3"
        },
        "accessor_27": {
            "bufferView": "bufferView_165",
            "byteOffset": 96,
            "byteStride": 8,
            "componentType": 5126,
            "count": 4,
            "max": [
                40.1247,
                13.9691
            ],
            "min": [
                0,
                1
            ],
            "type": "VEC2"
        },
        "accessor_48": {
            "bufferView": "bufferView_164",
            "byteOffset": 12,
            "byteStride": 0,
            "componentType": 5123,
            "count": 6,
            "type": "SCALAR"
        },
        "accessor_50": {
            "bufferView": "bufferView_165",
            "byteOffset": 128,
            "byteStride": 12,
            "componentType": 5126,
            "count": 4,
            "max": [
                40.3272,
                76,
                13.0327
            ],
            "min": [
                -39.9221,
                0,
                13.0327
            ],
            "type": "VEC3"
        },
        "accessor_52": {
            "bufferView": "bufferView_165",
            "byteOffset": 176,
            "byteStride": 12,
            "componentType": 5126,
            "count": 4,
            "max": [
                0,
                0,
                1
            ],
            "min": [
                0,
                0,
                1
            ],
            "type": "VEC3"
        },
        "accessor_54": {
            "bufferView": "bufferView_165",
            "byteOffset": 224,
            "byteStride": 8,
            "componentType": 5126,
            "count": 4,
            "max": [
                -61.361,
                101.741
            ],
            "min": [
                -67.896,
                92.241
            ],
            "type": "VEC2"
        },
        "accessor_75": {
            "bufferView": "bufferView_164",
            "byteOffset": 24,
            "byteStride": 0,
            "componentType": 5123,
            "count": 6,
            "type": "SCALAR"
        },
        "accessor_77": {
            "bufferView": "bufferView_165",
            "byteOffset": 256,
            "byteStride": 12,
            "componentType": 5126,
            "count": 4,
            "max": [
                40.3272,
                76,
                13.0327
            ],
            "min": [
                40.3272,
                0,
                -12.9055
            ],
            "type": "VEC3"
        },
        "accessor_79": {
            "bufferView": "bufferView_165",
            "byteOffset": 304,
            "byteStride": 12,
            "componentType": 5126,
            "count": 4,
            "max": [
                1,
                0,
                -0
            ],
            "min": [
                1,
                0,
                -0
            ],
            "type": "VEC3"
        },
        "accessor_81": {
            "bufferView": "bufferView_165",
            "byteOffset": 352,
            "byteStride": 8,
            "componentType": 5126,
            "count": 4,
            "max": [
                -63.5941,
                101.741
            ],
            "min": [
                -65.7063,
                92.241
            ],
            "type": "VEC2"
        }
    },
    "animations": {},
    "asset": {
        "generator": "collada2gltf@cf6371beb0bdc18ba603378d5e40c966da53d385",
        "premultipliedAlpha": true,
        "profile": {
            "api": "WebGL",
            "version": "1.0.2"
        },
        "version": "1.0"
    },
    "bufferViews": {
        "bufferView_164": {
            "buffer": "\\迅维科技\\SoonBuilder(Beta)\\exe\\COLLADA2GLTF\\haichuang4hl\\haichuang4hl",
            "byteLength": 72,
            "byteOffset": 0,
            "target": 34963
        },
        "bufferView_165": {
            "buffer": "\\迅维科技\\SoonBuilder(Beta)\\exe\\COLLADA2GLTF\\haichuang4hl\\haichuang4hl",
            "byteLength": 768,
            "byteOffset": 72,
            "target": 34962
        }
    },
    "buffers": {
        "\\迅维科技\\SoonBuilder(Beta)\\exe\\COLLADA2GLTF\\haichuang4hl\\haichuang4hl": {
            "byteLength": 840,
            "type": "arraybuffer",
            "uri": "data:application/octet-stream;base64,"
        }
    },
    "images": {
        "ExCon02.jpg": {
            "name": "ExCon02.jpg",
            "uri": "ExCon02.jpg"
        },
        "muqiang178.jpg": {
            "name": "muqiang178.jpg",
            "uri": "muqiang178.jpg"
        },
        "muqiang79.jpg": {
            "name": "muqiang79.jpg",
            "uri": "muqiang79.jpg"
        }
    },
    "materials": {
        "LIBENT27-effect": {
            "name": "LIBENT27",
            "technique": "technique0",
            "values": {
                "ambient": [
                    0.741176,
                    0.74902,
                    0.764706,
                    1
                ],
                "diffuse": "texture_muqiang79.jpg",
                "emission": [
                    0,
                    0,
                    0,
                    0
                ],
                "shininess": 0,
                "specular": [
                    0,
                    0,
                    0,
                    1
                ]
            }
        },
        "LIBENT30-effect": {
            "name": "LIBENT30",
            "technique": "technique0",
            "values": {
                "ambient": [
                    0.741176,
                    0.74902,
                    0.764706,
                    1
                ],
                "diffuse": "texture_muqiang178.jpg",
                "emission": [
                    0,
                    0,
                    0,
                    0
                ],
                "shininess": 0,
                "specular": [
                    0,
                    0,
                    0,
                    1
                ]
            }
        },
        "LIBENT7-effect": {
            "name": "LIBENT7",
            "technique": "technique0",
            "values": {
                "ambient": [
                    1,
                    1,
                    1,
                    1
                ],
                "diffuse": "texture_ExCon02.jpg",
                "emission": [
                    0,
                    0,
                    0,
                    0
                ],
                "shininess": 0,
                "specular": [
                    0,
                    0,
                    0,
                    1
                ]
            }
        }
    },
    "meshes": {
        "SLAB_0_1611362557_LOWER-geometry-0": {
            "name": "SLAB_0_1611362557_LOWER-geometry-0",
            "primitives": [
                {
                    "attributes": {
                        "NORMAL": "accessor_25",
                        "POSITION": "accessor_23",
                        "TEXCOORD_0": "accessor_27"
                    },
                    "indices": "accessor_21",
                    "material": "LIBENT7-effect",
                    "mode": 4
                }
            ]
        },
        "SLAB_0_1611362557_SIDE0-geometry-0": {
            "name": "SLAB_0_1611362557_SIDE0-geometry-0",
            "primitives": [
                {
                    "attributes": {
                        "NORMAL": "accessor_52",
                        "POSITION": "accessor_50",
                        "TEXCOORD_0": "accessor_54"
                    },
                    "indices": "accessor_48",
                    "material": "LIBENT27-effect",
                    "mode": 4
                }
            ]
        },
        "SLAB_0_1611362557_SIDE1-geometry-0": {
            "name": "SLAB_0_1611362557_SIDE1-geometry-0",
            "primitives": [
                {
                    "attributes": {
                        "NORMAL": "accessor_79",
                        "POSITION": "accessor_77",
                        "TEXCOORD_0": "accessor_81"
                    },
                    "indices": "accessor_75",
                    "material": "LIBENT27-effect",
                    "mode": 4
                }
            ]
        },
        "SLAB_0_1611362557_SIDE2-geometry-0": {
            "name": "SLAB_0_1611362557_SIDE2-geometry-0",
            "primitives": [
                {
                    "attributes": {
                        "NORMAL": "accessor_106",
                        "POSITION": "accessor_104",
                        "TEXCOORD_0": "accessor_108"
                    },
                    "indices": "accessor_102",
                    "material": "LIBENT27-effect",
                    "mode": 4
                }
            ]
        },
        "SLAB_0_1611362557_SIDE3-geometry-0": {
            "name": "SLAB_0_1611362557_SIDE3-geometry-0",
            "primitives": [
                {
                    "attributes": {
                        "NORMAL": "accessor_133",
                        "POSITION": "accessor_131",
                        "TEXCOORD_0": "accessor_135"
                    },
                    "indices": "accessor_129",
                    "material": "LIBENT30-effect",
                    "mode": 4
                }
            ]
        },
        "SLAB_0_1611362557_UPPER-geometry-0": {
            "name": "SLAB_0_1611362557_UPPER-geometry-0",
            "primitives": [
                {
                    "attributes": {
                        "NORMAL": "accessor_160",
                        "POSITION": "accessor_158",
                        "TEXCOORD_0": "accessor_162"
                    },
                    "indices": "accessor_156",
                    "material": "LIBENT7-effect",
                    "mode": 4
                }
            ]
        }
    },
    "nodes": {
        "SLAB_0_1611362557_LOWER": {
            "children": [],
            "matrix": [
                0.1,
                0,
                0,
                0,
                0,
                0.1,
                0,
                0,
                0,
                0,
                0.1,
                0,
                0,
                0,
                0,
                1
            ],
            "meshes": [
                "SLAB_0_1611362557_LOWER-geometry-0"
            ],
            "name": "SLAB_0_1611362557_LOWER"
        },
        "SLAB_0_1611362557_SIDE0": {
            "children": [],
            "matrix": [
                0.1,
                0,
                0,
                0,
                0,
                0.1,
                0,
                0,
                0,
                0,
                0.1,
                0,
                0,
                0,
                0,
                1
            ],
            "meshes": [
                "SLAB_0_1611362557_SIDE0-geometry-0"
            ],
            "name": "SLAB_0_1611362557_SIDE0"
        },
        "SLAB_0_1611362557_SIDE1": {
            "children": [],
            "matrix": [
                0.1,
                0,
                0,
                0,
                0,
                0.1,
                0,
                0,
                0,
                0,
                0.1,
                0,
                0,
                0,
                0,
                1
            ],
            "meshes": [
                "SLAB_0_1611362557_SIDE1-geometry-0"
            ],
            "name": "SLAB_0_1611362557_SIDE1"
        },
        "SLAB_0_1611362557_SIDE2": {
            "children": [],
            "matrix": [
                0.1,
                0,
                0,
                0,
                0,
                0.1,
                0,
                0,
                0,
                0,
                0.1,
                0,
                0,
                0,
                0,
                1
            ],
            "meshes": [
                "SLAB_0_1611362557_SIDE2-geometry-0"
            ],
            "name": "SLAB_0_1611362557_SIDE2"
        },
        "SLAB_0_1611362557_SIDE3": {
            "children": [],
            "matrix": [
                0.1,
                0,
                0,
                0,
                0,
                0.1,
                0,
                0,
                0,
                0,
                0.1,
                0,
                0,
                0,
                0,
                1
            ],
            "meshes": [
                "SLAB_0_1611362557_SIDE3-geometry-0"
            ],
            "name": "SLAB_0_1611362557_SIDE3"
        },
        "SLAB_0_1611362557_UPPER": {
            "children": [],
            "matrix": [
                0.1,
                0,
                0,
                0,
                0,
                0.1,
                0,
                0,
                0,
                0,
                0.1,
                0,
                0,
                0,
                0,
                1
            ],
            "meshes": [
                "SLAB_0_1611362557_UPPER-geometry-0"
            ],
            "name": "SLAB_0_1611362557_UPPER"
        }
    },
    "programs": {
        "program_0": {
            "attributes": [
                "a_normal",
                "a_position",
                "a_texcoord0"
            ],
            "fragmentShader": "\\迅维科技\\SoonBuilder(Beta)\\exe\\COLLADA2GLTF\\haichuang4hl\\haichuang4hl0FS",
            "vertexShader": "\\迅维科技\\SoonBuilder(Beta)\\exe\\COLLADA2GLTF\\haichuang4hl\\haichuang4hl0VS"
        }
    },
    "samplers": {
        "sampler_0": {
            "magFilter": 9729,
            "minFilter": 9729,
            "wrapS": 10497,
            "wrapT": 10497
        }
    },
    "scene": "defaultScene",
    "scenes": {
        "defaultScene": {
            "nodes": [
                "SLAB_0_1611362557_LOWER",
                "SLAB_0_1611362557_SIDE0",
                "SLAB_0_1611362557_SIDE1",
                "SLAB_0_1611362557_SIDE2",
                "SLAB_0_1611362557_SIDE3",
                "SLAB_0_1611362557_UPPER"
            ]
        }
    },
    "shaders": {
        "\\迅维科技\\SoonBuilder(Beta)\\exe\\COLLADA2GLTF\\haichuang4hl\\haichuang4hl0FS": {
            "type": 35632,
            "uri": "data:text/plain;base64,"
        },
        "\\迅维科技\\SoonBuilder(Beta)\\exe\\COLLADA2GLTF\\haichuang4hl\\haichuang4hl0VS": {
            "type": 35633,
            "uri": "data:text/plain;base64,"
        }
    },
    "skins": {},
    "techniques": {
        "technique0": {
            "attributes": {
                "a_normal": "normal",
                "a_position": "position",
                "a_texcoord0": "texcoord0"
            },
            "parameters": {
                "ambient": {
                    "type": 35666
                },
                "diffuse": {
                    "type": 35678
                },
                "emission": {
                    "type": 35666
                },
                "modelViewMatrix": {
                    "semantic": "MODELVIEW",
                    "type": 35676
                },
                "normal": {
                    "semantic": "NORMAL",
                    "type": 35665
                },
                "normalMatrix": {
                    "semantic": "MODELVIEWINVERSETRANSPOSE",
                    "type": 35675
                },
                "position": {
                    "semantic": "POSITION",
                    "type": 35665
                },
                "projectionMatrix": {
                    "semantic": "PROJECTION",
                    "type": 35676
                },
                "shininess": {
                    "type": 5126
                },
                "specular": {
                    "type": 35666
                },
                "texcoord0": {
                    "semantic": "TEXCOORD_0",
                    "type": 35664
                }
            },
            "program": "program_0",
            "states": {
                "enable": [
                    2929,
                    2884
                ]
            },
            "uniforms": {
                "u_ambient": "ambient",
                "u_diffuse": "diffuse",
                "u_emission": "emission",
                "u_modelViewMatrix": "modelViewMatrix",
                "u_normalMatrix": "normalMatrix",
                "u_projectionMatrix": "projectionMatrix",
                "u_shininess": "shininess",
                "u_specular": "specular"
            }
        }
    },
    "textures": {
        "texture_ExCon02.jpg": {
            "format": 6408,
            "internalFormat": 6408,
            "sampler": "sampler_0",
            "source": "ExCon02.jpg",
            "target": 3553,
            "type": 5121
        },
        "texture_muqiang178.jpg": {
            "format": 6408,
            "internalFormat": 6408,
            "sampler": "sampler_0",
            "source": "muqiang178.jpg",
            "target": 3553,
            "type": 5121
        },
        "texture_muqiang79.jpg": {
            "format": 6408,
            "internalFormat": 6408,
            "sampler": "sampler_0",
            "source": "muqiang79.jpg",
            "target": 3553,
            "type": 5121
        }
    }
}