{
    "accessors": {
        "accessor_21": {
            "bufferView": "bufferView_56",
            "byteOffset": 0,
            "byteStride": 0,
            "componentType": 5123,
            "count": 6,
            "type": "SCALAR"
        },
        "accessor_23": {
            "bufferView": "bufferView_57",
            "byteOffset": 0,
            "byteStride": 12,
            "componentType": 5126,
            "count": 4,
            "max": [
                112.739,
                3,
                116.032
            ],
            "min": [
                -107.274,
                3,
                -117.888
            ],
            "type": "VEC3"
        },
        "accessor_25": {
            "bufferView": "bufferView_57",
            "byteOffset": 48,
            "byteStride": 12,
            "componentType": 5126,
            "count": 4,
            "max": [
                0,
                -1,
                0
            ],
            "min": [
                0,
                -1,
                0
            ],
            "type": "VEC3"
        },
        "accessor_27": {
            "bufferView": "bufferView_57",
            "byteOffset": 96,
            "byteStride": 8,
            "componentType": 5126,
            "count": 4,
            "max": [
                110.006,
                117.96
            ],
            "min": [
                0,
                1
            ],
            "type": "VEC2"
        },
        "accessor_48": {
            "bufferView": "bufferView_56",
            "byteOffset": 12,
            "byteStride": 0,
            "componentType": 5123,
            "count": 6,
            "type": "SCALAR"
        },
        "accessor_50": {
            "bufferView": "bufferView_57",
            "byteOffset": 128,
            "byteStride": 12,
            "componentType": 5126,
            "count": 4,
            "max": [
                112.739,
                0,
                116.032
            ],
            "min": [
                -107.274,
                0,
                -117.888
            ],
            "type": "VEC3"
        },
        "accessor_52": {
            "bufferView": "bufferView_57",
            "byteOffset": 176,
            "byteStride": 12,
            "componentType": 5126,
            "count": 4,
            "max": [
                0,
                1,
                0
            ],
            "min": [
                0,
                1,
                0
            ],
            "type": "VEC3"
        },
        "accessor_54": {
            "bufferView": "bufferView_57",
            "byteOffset": 224,
            "byteStride": 8,
            "componentType": 5126,
            "count": 4,
            "max": [
                -0.00145367,
                1.00027
            ],
            "min": [
                -1.00151,
                0.000617027
            ],
            "type": "VEC2"
        }
    },
    "animations": {},
    "asset": {
        "generator": "collada2gltf@cf6371beb0bdc18ba603378d5e40c966da53d385",
        "premultipliedAlpha": true,
        "profile": {
            "api": "WebGL",
            "version": "1.0.2"
        },
        "version": "1.0"
    },
    "bufferViews": {
        "bufferView_56": {
            "buffer": "\\迅维科技\\SoonBuilder(Beta)\\exe\\COLLADA2GLTF\\haichuangdixing\\haichuangdixing",
            "byteLength": 24,
            "byteOffset": 0,
            "target": 34963
        },
        "bufferView_57": {
            "buffer": "\\迅维科技\\SoonBuilder(Beta)\\exe\\COLLADA2GLTF\\haichuangdixing\\haichuangdixing",
            "byteLength": 256,
            "byteOffset": 24,
            "target": 34962
        }
    },
    "buffers": {
        "\\迅维科技\\SoonBuilder(Beta)\\exe\\COLLADA2GLTF\\haichuangdixing\\haichuangdixing": {
            "byteLength": 280,
            "type": "arraybuffer",
            "uri": "data:application/octet-stream;base64,"
        }
    },
    "images": {
        "CeilingDefault.jpg": {
            "name": "CeilingDefault.jpg",
            "uri": "CeilingDefault.jpg"
        },
        "ditu.jpg": {
            "name": "ditu.jpg",
            "uri": "ditu.jpg"
        }
    },
    "materials": {
        "LIBENT10-effect": {
            "name": "LIBENT10",
            "technique": "technique0",
            "values": {
                "ambient": [
                    0.772549,
                    0.772549,
                    0.772549,
                    1
                ],
                "diffuse": "texture_CeilingDefault.jpg",
                "emission": [
                    0,
                    0,
                    0,
                    0
                ],
                "shininess": 0,
                "specular": [
                    0,
                    0,
                    0,
                    1
                ]
            }
        },
        "LIBENT15-effect": {
            "name": "LIBENT15",
            "technique": "technique0",
            "values": {
                "ambient": [
                    0.737255,
                    0.74902,
                    0.764706,
                    1
                ],
                "diffuse": "texture_ditu.jpg",
                "emission": [
                    0,
                    0,
                    0,
                    0
                ],
                "shininess": 0,
                "specular": [
                    0,
                    0,
                    0,
                    1
                ]
            }
        }
    },
    "meshes": {
        "CEILING_0_2042121323-geometry-0": {
            "name": "CEILING_0_2042121323-geometry-0",
            "primitives": [
                {
                    "attributes": {
                        "NORMAL": "accessor_25",
                        "POSITION": "accessor_23",
                        "TEXCOORD_0": "accessor_27"
                    },
                    "indices": "accessor_21",
                    "material": "LIBENT10-effect",
                    "mode": 4
                }
            ]
        },
        "SPACE_0_2061686707-geometry-0": {
            "name": "SPACE_0_2061686707-geometry-0",
            "primitives": [
                {
                    "attributes": {
                        "NORMAL": "accessor_52",
                        "POSITION": "accessor_50",
                        "TEXCOORD_0": "accessor_54"
                    },
                    "indices": "accessor_48",
                    "material": "LIBENT15-effect",
                    "mode": 4
                }
            ]
        }
    },
    "nodes": {
        "CEILING_0_2042121323": {
            "children": [],
            "matrix": [
                0.1,
                0,
                0,
                0,
                0,
                0.1,
                0,
                0,
                0,
                0,
                0.1,
                0,
                0,
                0,
                0,
                1
            ],
            "meshes": [
                "CEILING_0_2042121323-geometry-0"
            ],
            "name": "CEILING_0_2042121323"
        },
        "SPACE_0_2061686707": {
            "children": [],
            "matrix": [
                0.1,
                0,
                0,
                0,
                0,
                0.1,
                0,
                0,
                0,
                0,
                0.1,
                0,
                0,
                0,
                0,
                1
            ],
            "meshes": [
                "SPACE_0_2061686707-geometry-0"
            ],
            "name": "SPACE_0_2061686707"
        }
    },
    "programs": {
        "program_0": {
            "attributes": [
                "a_normal",
                "a_position",
                "a_texcoord0"
            ],
            "fragmentShader": "\\迅维科技\\SoonBuilder(Beta)\\exe\\COLLADA2GLTF\\haichuangdixing\\haichuangdixing0FS",
            "vertexShader": "\\迅维科技\\SoonBuilder(Beta)\\exe\\COLLADA2GLTF\\haichuangdixing\\haichuangdixing0VS"
        }
    },
    "samplers": {
        "sampler_0": {
            "magFilter": 9729,
            "minFilter": 9729,
            "wrapS": 10497,
            "wrapT": 10497
        }
    },
    "scene": "defaultScene",
    "scenes": {
        "defaultScene": {
            "nodes": [
                "CEILING_0_2042121323",
                "SPACE_0_2061686707"
            ]
        }
    },
    "shaders": {
        "\\迅维科技\\SoonBuilder(Beta)\\exe\\COLLADA2GLTF\\haichuangdixing\\haichuangdixing0FS": {
            "type": 35632,
            "uri": "data:text/plain;base64,"
        },
        "\\迅维科技\\SoonBuilder(Beta)\\exe\\COLLADA2GLTF\\haichuangdixing\\haichuangdixing0VS": {
            "type": 35633,
            "uri": "data:text/plain;base64,"
        }
    },
    "skins": {},
    "techniques": {
        "technique0": {
            "attributes": {
                "a_normal": "normal",
                "a_position": "position",
                "a_texcoord0": "texcoord0"
            },
            "parameters": {
                "ambient": {
                    "type": 35666
                },
                "diffuse": {
                    "type": 35678
                },
                "emission": {
                    "type": 35666
                },
                "modelViewMatrix": {
                    "semantic": "MODELVIEW",
                    "type": 35676
                },
                "normal": {
                    "semantic": "NORMAL",
                    "type": 35665
                },
                "normalMatrix": {
                    "semantic": "MODELVIEWINVERSETRANSPOSE",
                    "type": 35675
                },
                "position": {
                    "semantic": "POSITION",
                    "type": 35665
                },
                "projectionMatrix": {
                    "semantic": "PROJECTION",
                    "type": 35676
                },
                "shininess": {
                    "type": 5126
                },
                "specular": {
                    "type": 35666
                },
                "texcoord0": {
                    "semantic": "TEXCOORD_0",
                    "type": 35664
                }
            },
            "program": "program_0",
            "states": {
                "enable": [
                    2929,
                    2884
                ]
            },
            "uniforms": {
                "u_ambient": "ambient",
                "u_diffuse": "diffuse",
                "u_emission": "emission",
                "u_modelViewMatrix": "modelViewMatrix",
                "u_normalMatrix": "normalMatrix",
                "u_projectionMatrix": "projectionMatrix",
                "u_shininess": "shininess",
                "u_specular": "specular"
            }
        }
    },
    "textures": {
        "texture_CeilingDefault.jpg": {
            "format": 6408,
            "internalFormat": 6408,
            "sampler": "sampler_0",
            "source": "CeilingDefault.jpg",
            "target": 3553,
            "type": 5121
        },
        "texture_ditu.jpg": {
            "format": 6408,
            "internalFormat": 6408,
            "sampler": "sampler_0",
            "source": "ditu.jpg",
            "target": 3553,
            "type": 5121
        }
    }
}